PathFileType	4	(X/Y/Z)	F:\MotionCapture\20160217\3\Generated_files\EMG_Fprce_test02-Dynamic.trc
DataRate	CameraRate	NumFrames	NumMarkers	Units	OrigDataRate	OrigDataStartFrame	OrigNumFrames
120.00	120.00	       8	39	mm	120.00	528	       703
Frame#	Time	Top.Head			Front.Head			Rear.Head			R.Shoulder			R.Offset			R.Elbow			R.Wrist			L.Shoulder			L.Elbow			L.Wrist			R.ASIS			L.ASIS			V.Sacral			R.Thigh			R.Knee			R.Shank			R.Ankle			R.Heel			R.Toe			L.Thigh			L.Knee			L.Shank			L.Ankle			L.Heel			L.Toe			R1			R2			R3			R4			R5			R6			R7			L1			L2			L3			L4			L5			L6			L7			V_Mid_ASIS			V_Pelvis_Origin			V_R.Hip_JC			V_L.Hip_JC			V_R.Knee_JC			V_L.Knee_JC			V_R.Ankle_JC			V_L.Ankle_JC			V_Mid_Hip			V_Mid_Shoulder			V_R.Hand			V_L.Hand			V_R.Toe_Offset_Static			V_L.Toe_Offset_Static			V_R.Toe_Offset			V_L.Toe_Offset			
		X1	Y1	Z1	X2	Y2	Z2	X3	Y3	Z3	X4	Y4	Z4	X5	Y5	Z5	X6	Y6	Z6	X7	Y7	Z7	X8	Y8	Z8	X9	Y9	Z9	X10	Y10	Z10	X11	Y11	Z11	X12	Y12	Z12	X13	Y13	Z13	X14	Y14	Z14	X15	Y15	Z15	X16	Y16	Z16	X17	Y17	Z17	X18	Y18	Z18	X19	Y19	Z19	X20	Y20	Z20	X21	Y21	Z21	X22	Y22	Z22	X23	Y23	Z23	X24	Y24	Z24	X25	Y25	Z25	X26	Y26	Z26	X27	Y27	Z27	X28	Y28	Z28	X29	Y29	Z29	X30	Y30	Z30	X31	Y31	Z31	X32	Y32	Z32	X33	Y33	Z33	X34	Y34	Z34	X35	Y35	Z35	X36	Y36	Z36	X37	Y37	Z37	X38	Y38	Z38	X39	Y39	Z39	

528	4.392	-2099.52979	212.77386	1732.23560	-2220.42212	209.76381	1664.18811	-1998.96863	203.64711	1650.14600				-1963.35559	108.18153	1276.84424	-2374.85156	-95.86095	953.07208	-2183.53638	-127.00816	1124.45850	-2120.31836	-7.10535	1435.44177				-2060.87671	393.85468	1415.42517	-2154.33521	322.40088	951.56085	-2169.66333	36.65728	942.62878	-1937.58386	172.11909	944.75958	-2308.12109	321.12274	630.18085	-2261.97095	361.25323	500.22360	-2202.75635	268.77478	275.66885	-2083.76538	310.69574	134.15645	-2027.80750	233.28320	130.74852	-2210.80859	314.41306	63.49306	-2182.86182	103.79124	611.30206	-2077.29932	53.54139	456.41544	-2064.63623	136.60666	320.61365	-1967.84094	79.00387	62.62495	-1900.03821	132.02922	49.11654	-2107.84985	90.69353	38.75201	-2253.64551	305.70316	53.25960	-2223.51172	277.38470	65.14867	-2147.85278	232.15068	109.06277	-2082.81152	212.24193	121.01364	-2046.32556	281.88242	118.85672	-2109.14526	321.95709	81.08874	-2166.49902	340.89252	58.45789	-2151.50732	117.43330	33.91639	-2118.27246	130.91597	41.76094	-2021.66919	171.45255	44.32845	-1937.25549	165.74896	46.75348	-1929.79431	94.09993	45.27337	-2002.48352	69.89244	33.99954	-2067.00684	56.90415	36.94643																																																	-1985.87988	484.96512	1100.17395	-1831.44666	158.42731	86.42628	-2049.94434	493.45813	843.22424	-2038.73853	322.24017	32.60760	
529	4.400	-2112.27148	214.15584	1730.31616	-2233.17432	211.27313	1662.04700	-2011.98352	204.71896	1648.61694				-1975.25610	108.94865	1275.21875	-2400.23242	-93.78072	961.72845	-2202.75342	-126.98526	1125.50183	-2132.68262	-5.97946	1434.32654				-2072.76587	394.66235	1413.53552	-2166.35254	322.66302	949.27606	-2180.28125	36.66808	940.74225	-1947.80554	173.87611	942.05017	-2323.00000	320.81610	631.09558	-2278.74780	360.52344	500.70612	-2230.21558	269.62442	273.37167	-2122.11548	313.57507	125.16001	-2063.31958	236.61757	118.93275	-2250.61914	315.84332	61.87653	-2190.34814	104.23415	609.34479	-2081.67358	54.09972	455.26727	-2068.54907	136.84990	320.25589	-1968.26123	79.42648	62.98325	-1899.73035	132.35399	49.96844	-2107.97534	90.64536	38.71849	-2293.76367	307.00970	55.06170	-2262.72095	278.70627	64.66683	-2184.89014	233.45557	104.90990	-2113.64307	217.42140	108.42014	-2081.21289	285.36264	108.20550	-2148.09888	324.24338	73.73271	-2208.10522	343.75433	55.91132	-2150.56812	117.06056	32.84540	-2118.31494	130.76585	41.76699	-2021.30200	171.52835	44.43848	-1937.68555	166.13692	47.25431	-1930.13208	94.28436	45.72741	-2002.43933	70.32281	34.06470	-2066.77783	56.98105	36.90888																																																	-1992.70313	483.99667	1098.74182	-2049.73486	492.67801	840.34717	-2209.72339	317.36057	-59.81389	3684.37817	-1508.93188	-713.49298	
530	4.408	-2124.85181	215.79301	1728.58545	-2245.86963	212.58765	1660.04968	-2024.85181	205.93932	1646.69800				-1987.12695	109.65969	1273.54688	-2424.86621	-91.57880	969.99109	-2222.01758	-126.86986	1126.47534	-2145.56665	-4.86611	1432.46130				-2085.38574	395.34476	1411.31030	-2178.40845	323.06842	946.93188	-2190.98706	36.06109	938.99042	-1959.45020	175.80885	940.19019	-2337.34937	320.40686	631.40881	-2295.88159	360.79584	500.99228	-2257.67065	270.91556	271.08887	-2158.30688	316.13840	117.19292	-2099.05249	240.23605	107.06131	-2287.50732	312.63058	57.47288	-2197.21265	105.03884	607.15295	-2086.37061	54.88981	453.98798	-2070.47754	137.44374	318.77502	-1967.75134	78.44111	64.37498	-1900.46179	132.46910	50.83967	-2107.99536	90.62502	38.67150	-2333.75977	307.63016	58.02426	-2302.36475	280.31134	65.57601	-2221.93433	235.52203	100.59377	-2149.55640	222.03613	98.67443	-2120.27734	288.37546	97.25298	-2188.04834	328.40030	68.60268	-2248.38672	343.17783	51.95104	-2150.62427	116.90392	32.80688	-2118.36475	130.78114	41.67124	-2021.56726	171.82878	44.40332	-1937.93250	166.25362	47.60406	-1930.46399	94.90218	46.15293	-2002.81335	70.41059	34.22734	-2066.74536	57.05620	36.86591																																																	-2000.00452	483.20374	1097.73096	-2050.08936	492.27203	838.04163	3401.28955	-1372.52600	-1960.28235	
531	4.417	-2137.81812	216.95451	1726.45166	-2258.61279	214.02792	1657.69067	-2037.69214	207.15059	1644.88879				-1997.93762	110.61611	1272.47473	-2448.99512	-89.30711	978.41321	-2240.76270	-126.53727	1127.13855	-2157.48926	-3.42240	1430.80371				-2097.04468	396.84650	1409.18054	-2190.44434	323.49756	944.35986	-2201.55396	36.19919	936.41638	-1970.43201	176.25841	937.65173	-2351.34668	320.17752	631.23187	-2311.67212	360.56735	500.52603	-2284.82129	272.04825	268.98630	-2193.49219	322.53955	109.39505	-2135.61206	244.03453	95.80805	-2327.27246	314.41452	58.29821	-2204.43799	105.21749	605.33600	-2091.11670	54.60765	453.29489	-2074.77100	137.70621	318.16116	-1968.23315	79.16153	64.83511	-1900.64587	133.07736	51.79727	-2107.96338	90.57030	38.64453	-2373.34448	308.52286	61.98774	-2340.65918	281.47495	65.88197	-2258.45337	238.16833	96.46732	-2186.68433	224.21837	91.15428	-2157.70459	292.43069	87.65530	-2226.98071	330.73343	62.14926	-2288.68677	345.85602	49.39761	-2151.80176	116.88155	33.73978	-2118.44995	130.83281	41.55856	-2021.76990	172.03946	44.46396	-1938.42297	166.65704	48.00080	-1930.29224	95.32359	46.75552	-2002.02563	71.41531	33.81778	-2067.11548	57.00455	37.37634																																																	-2007.23267	482.79291	1096.44556	-2151.80176	116.88155	33.73978	-2050.95459	492.67908	835.95685	-2221.31226	321.45303	-64.02330	-2349.01294	204.63307	38.39989	
532	4.425	-2150.63599	218.52650	1723.90540	-2271.26392	215.38495	1655.27795	-2049.80273	208.37654	1642.79004				-2009.34802	112.64137	1270.74231	-2472.65430	-87.06233	986.66632	-2259.89600	-126.56173	1128.10950	-2170.09521	-2.58313	1428.59583				-2109.32886	397.79422	1406.49304	-2202.50757	324.23157	941.38904	-2212.36499	36.37648	934.22266	-1982.35229	177.97794	934.59082	-2365.28345	320.13678	630.43347	-2327.33643	359.52393	499.82794	-2311.70825	273.61633	266.88696	-2232.62036	325.57709	103.99109	-2172.56494	248.09389	85.72330	-2366.84131	316.72150	59.60647	-2211.39307	105.62858	602.98413	-2095.40137	55.02202	452.19928	-2077.68799	137.34677	317.19272	-1968.67310	79.68970	65.08041	-1900.81506	133.59149	52.29057	-2107.83203	90.60302	38.57160	-2411.92749	309.84729	65.96487	-2379.06030	283.00650	67.64383	-2295.03589	241.02753	92.91659	-2223.23242	228.23749	83.50767	-2195.53589	296.54477	79.04700	-2266.47510	334.77280	56.71103	-2328.48022	348.92816	47.53802	-2151.88721	116.57146	33.70558	-2118.57300	130.76125	41.56139	-2021.87256	172.16116	44.45340	-1938.48560	166.87794	48.42150	-1930.41626	96.04646	47.30607	-2002.03467	71.50078	33.96150	-2067.10571	57.03868	37.35958																																																	-2015.33167	482.18137	1095.63635	-2051.94482	492.06274	834.07513	-2358.92310	207.11880	43.33020	3313.77563	-1333.08118	-2340.81763	
533	4.433	-2163.46265	220.04637	1721.85901	-2283.96997	217.22182	1652.88721	-2062.77686	209.96315	1640.41748				-2021.88086	113.27615	1268.55396	-2495.23633	-84.38201	994.57068	-2278.32813	-126.01773	1129.17834	-2182.24683	-1.26641	1426.56494				-2121.50439	399.33197	1404.26624	-2214.77295	325.07947	938.41425	-2223.43018	37.12774	932.20282	-1993.16248	179.36452	933.44604	-2378.67627	320.11172	629.11633	-2342.03784	358.64706	498.41638	-2338.33081	275.18826	264.99207	-2268.18506	327.07492	97.91191	-2209.18457	252.81076	75.84917	-2405.38599	318.00720	60.67174	-2218.65259	105.46473	600.57739	-2100.42505	54.64280	451.51532	-2082.13599	137.63394	316.79233	-1969.33252	80.48197	65.28098	-1900.84229	134.20815	53.08739	-2107.65527	90.79883	38.26641	-2450.23560	311.12662	70.72409	-2416.13208	285.24921	69.14172	-2331.31836	244.10201	90.26028	-2260.40796	231.45917	77.33270	-2233.16724	300.80692	70.52462	-2307.59766	339.68127	54.97016	-2368.23950	350.98517	48.47739	-2151.96240	116.28399	33.62627	-2118.62183	130.71371	41.53156	-2022.03467	172.34428	44.52252	-1938.64709	167.28589	48.90482	-1933.45862	99.23531	46.86550	-2002.03772	71.51258	34.10401	-2067.06763	57.08844	37.35271																																																	-2022.94104	481.08676	1094.26379	-2467.90625	381.27338	8.66230	-2053.70264	491.97314	832.10278	-1848.09778	120.76781	25.79889	
534	4.442	-2176.28320	221.49237	1719.38806	-2297.08398	218.36896	1650.22571	-2075.66382	211.27452	1638.21509				-2032.45654	114.40807	1266.85791	-2517.79395	-82.56620	1002.71130	-2296.51587	-125.43861	1129.77710	-2194.67798	-0.09281	1424.24634				-2133.83911	400.73459	1401.81592	-2227.01563	325.99564	935.46570	-2234.15259	37.51499	929.57141	-2004.88452	180.56221	931.59686	-2391.79150	320.19754	627.28644	-2356.45459	357.82751	496.76071	-2364.56958	276.76343	263.07532	-2305.06641	330.58136	92.54507	-2246.47119	258.93723	67.21490	-2444.01245	321.42844	64.28263	-2226.25928	105.35548	598.40521	-2104.99438	55.06215	450.34763	-2084.47632	137.71379	315.45477	-1969.02673	79.80447	66.01520	-1901.04785	134.51509	53.86071	-2107.62207	90.73412	38.23640	-2487.92554	312.97208	76.32365	-2454.54077	287.29016	73.08617	-2367.08618	247.52899	88.07796	-2296.92139	236.21701	71.24890	-2271.05005	305.57141	63.25273	-2345.64307	341.34650	50.34327	-2408.32788	354.94354	49.99570	-2151.04370	115.97904	32.47012	-2118.60815	130.57368	41.48265	-2022.15125	172.32896	44.82454	-1938.71594	167.35512	49.59961	-1933.63928	98.52033	48.77778	-2002.03735	71.53833	34.13792	-2067.00464	57.03979	37.29493																																																	-2030.72559	480.89120	1093.41248	-2276.70288	355.43820	-80.98594	-2055.55200	491.14673	830.51038	
535	4.450	-2189.34155	223.02866	1716.89404	-2309.84351	219.88403	1647.68274	-2088.61621	212.66129	1635.85779				-2044.95776	116.09335	1264.37756	-2539.57300	-80.26938	1010.54150	-2314.46362	-124.50565	1130.32080	-2206.93945	1.55819	1421.73401				-2146.16260	401.71927	1399.58582	-2239.57568	327.09027	932.49182	-2245.40845	38.66966	927.39722	-2017.12708	181.27190	929.54639	-2404.78760	320.20242	624.78827	-2370.70752	357.29333	494.90137	-2390.38184	278.32755	261.72870	-2341.85620	335.54126	88.68996	-2283.06934	264.89392	59.41441	-2481.19775	323.46518	67.50603	-2233.63989	105.22144	595.95343	-2110.03247	55.02739	449.41290	-2088.38721	137.44934	314.72922	-1969.16199	80.08009	66.36231	-1901.21960	134.68877	55.43197	-2107.54907	90.68747	38.19506	-2524.07031	314.73639	81.78358	-2490.73364	289.45837	76.43267	-2402.21899	251.81514	86.17286	-2333.10864	241.57646	65.99504	-2299.97461	314.51694	63.35627	-2384.89673	346.55594	49.74195	-2446.77979	358.00131	52.30767	-2151.03760	115.72389	32.38623	-2118.60205	130.46352	41.46138	-2022.47229	172.50299	45.13441	-1938.97729	167.40323	50.52162	-1930.37939	94.59129	51.63395	-2001.93689	71.52872	34.30106	-2066.89136	57.00981	37.20609																																																	-2038.96497	480.56146	1091.77527	-2266.81714	350.15442	-76.40818	-2057.26636	489.69141	828.59442	-2264.83594	196.36208	-21.78833	
